<svg xmlns="http://www.w3.org/2000/svg" width="18" height="17" viewBox="0 0 18 17" fill="none">
  <path d="M10.0596 0.00102533C10.6677 -0.00130819 11.2758 0.00480357 11.8838 0.0193587L12.0455 0.025192C12.2321 0.0318587 12.4163 0.040192 12.6388 0.050192C13.5255 0.0918587 14.1305 0.231859 14.6613 0.437692C15.2113 0.649359 15.6746 0.936025 16.138 1.39936C16.5616 1.8157 16.8895 2.31931 17.0988 2.87519C17.3046 3.40603 17.4446 4.01186 17.4863 4.89853C17.4963 5.12019 17.5046 5.30519 17.5113 5.49186L17.5163 5.65353C17.5311 6.26119 17.5375 6.86902 17.5355 7.47686L17.5363 8.09853V9.19019C17.5383 9.79831 17.532 10.4064 17.5171 11.0144L17.5121 11.176C17.5055 11.3627 17.4971 11.5469 17.4871 11.7694C17.4455 12.656 17.3038 13.261 17.0988 13.7919C16.8902 14.3483 16.5622 14.8524 16.138 15.2685C15.7213 15.6921 15.2174 16.02 14.6613 16.2294C14.1305 16.4352 13.5255 16.5752 12.6388 16.6169C12.4163 16.6269 12.2321 16.6352 12.0455 16.6419L11.8838 16.6469C11.2759 16.6617 10.6677 16.6681 10.0596 16.666L9.43795 16.6669H8.34712C7.73901 16.6689 7.13089 16.6625 6.52296 16.6477L6.36129 16.6427C6.16346 16.6355 5.96568 16.6272 5.76795 16.6177C4.88129 16.576 4.27629 16.4344 3.74462 16.2294C3.18852 16.0205 2.68482 15.6925 2.26879 15.2685C1.84466 14.8521 1.51647 14.3482 1.30712 13.7919C1.10129 13.261 0.961288 12.656 0.919621 11.7694C0.910341 11.5716 0.902007 11.3738 0.894621 11.176L0.890455 11.0144C0.875091 10.4064 0.868146 9.79832 0.869621 9.19019V7.47686C0.867296 6.86903 0.873407 6.26119 0.887955 5.65353L0.893788 5.49186C0.900455 5.30519 0.908788 5.12019 0.918788 4.89853C0.960455 4.01103 1.10045 3.40686 1.30629 2.87519C1.51577 2.31904 1.84459 1.81556 2.26962 1.40019C2.68537 0.975819 3.18876 0.647336 3.74462 0.437692C4.27629 0.231859 4.88045 0.0918587 5.76795 0.050192L6.36129 0.025192L6.52296 0.0210255C7.13061 0.00566948 7.73844 -0.00127571 8.34629 0.000192057L10.0596 0.00102533ZM9.20296 4.16769C8.65088 4.15988 8.10275 4.26188 7.59044 4.46775C7.07812 4.67362 6.61183 4.97926 6.21866 5.3669C5.82549 5.75455 5.51329 6.21647 5.30019 6.72583C5.0871 7.23518 4.97736 7.78181 4.97736 8.33394C4.97736 8.88608 5.0871 9.4327 5.30019 9.94206C5.51329 10.4514 5.82549 10.9133 6.21866 11.301C6.61183 11.6886 7.07812 11.9943 7.59044 12.2001C8.10275 12.406 8.65088 12.508 9.20296 12.5002C10.308 12.5002 11.3678 12.0612 12.1492 11.2798C12.9306 10.4984 13.3696 9.43859 13.3696 8.33353C13.3696 7.22846 12.9306 6.16865 12.1492 5.38725C11.3678 4.60585 10.308 4.16769 9.20296 4.16769ZM9.20296 5.83436C9.53504 5.82824 9.86502 5.88836 10.1736 6.0112C10.4822 6.13404 10.7632 6.31714 11.0003 6.54981C11.2373 6.78248 11.4256 7.06005 11.5542 7.36631C11.6827 7.67257 11.749 8.00137 11.749 8.33352C11.7491 8.66566 11.6829 8.99449 11.5545 9.30079C11.426 9.60709 11.2378 9.88473 11.0009 10.1175C10.7639 10.3502 10.4829 10.5334 10.1744 10.6564C9.86584 10.7793 9.53588 10.8395 9.20379 10.8335C8.54075 10.8335 7.90486 10.5701 7.43602 10.1013C6.96718 9.63245 6.70379 8.99657 6.70379 8.33353C6.70379 7.67049 6.96718 7.0346 7.43602 6.56576C7.90486 6.09692 8.54075 5.83353 9.20379 5.83353L9.20296 5.83436ZM13.578 2.91769C13.3091 2.92845 13.0549 3.04282 12.8685 3.23684C12.6821 3.43085 12.5779 3.68947 12.5779 3.95853C12.5779 4.22758 12.6821 4.4862 12.8685 4.68022C13.0549 4.87423 13.3091 4.9886 13.578 4.99936C13.8542 4.99936 14.1192 4.88961 14.3145 4.69426C14.5099 4.49891 14.6196 4.23396 14.6196 3.95769C14.6196 3.68143 14.5099 3.41647 14.3145 3.22112C14.1192 3.02577 13.8542 2.91603 13.578 2.91603V2.91769Z" fill="#8C8787"/>
</svg>