<svg xmlns="http://www.w3.org/2000/svg" width="17" height="15" viewBox="0 0 17 15" fill="none">
  <path d="M4.31966 1.6675C4.31944 2.10953 4.14363 2.53336 3.83092 2.84577C3.5182 3.15817 3.09419 3.33355 2.65216 3.33333C2.21013 3.33311 1.7863 3.15731 1.47389 2.84459C1.16149 2.53187 0.986107 2.10786 0.986328 1.66583C0.986549 1.22381 1.16236 0.799971 1.47507 0.487566C1.78779 0.175162 2.2118 -0.000220805 2.65383 2.08635e-07C3.09586 0.000221222 3.51969 0.176028 3.8321 0.488745C4.1445 0.801462 4.31988 1.22547 4.31966 1.6675ZM4.36966 4.5675H1.03633V15.0008H4.36966V4.5675ZM9.63633 4.5675H6.31966V15.0008H9.60299V9.52583C9.60299 6.47583 13.578 6.1925 13.578 9.52583V15.0008H16.8697V8.3925C16.8697 3.25083 10.9863 3.4425 9.60299 5.9675L9.63633 4.5675Z" fill="#8C8787"/>
</svg>