<svg xmlns="http://www.w3.org/2000/svg" width="36" height="30" viewBox="0 0 36 30" fill="none">
  <path fill-rule="evenodd" clip-rule="evenodd" d="M0 0.951172L22.2857 29.0487C29.8599 29.0487 36 22.7589 36 15C36 7.24103 29.8599 0.951172 22.2857 0.951172H0ZM23.8247 25.4194C28.7753 24.6585 32.5714 20.2834 32.5714 15C32.5714 9.18076 27.9664 4.46337 22.2857 4.46337H16.6428C19.0859 7.25955 20.5714 10.952 20.5714 15C20.5714 16.8306 20.267 18.5904 19.7069 20.2277L23.8247 25.4194ZM17.0112 16.829C17.0979 16.2325 17.1429 15.6218 17.1429 15C17.1429 10.5284 14.8121 6.61441 11.3273 4.46337H7.20333L17.0112 16.829Z" fill="#007BFF"/>
</svg>