<svg xmlns="http://www.w3.org/2000/svg" width="17" height="14" viewBox="0 0 17 14" fill="none">
  <path d="M16.9867 1.63954C16.3507 1.92087 15.6764 2.10569 14.9858 2.18788C15.7134 1.75216 16.2577 1.06682 16.5175 0.259542C15.8342 0.666208 15.085 0.951208 14.305 1.10537C13.7805 0.544191 13.0853 0.172011 12.3275 0.0466956C11.5696 -0.0786197 10.7916 0.0499509 10.1144 0.412419C9.43716 0.774888 8.89866 1.35094 8.5826 2.05104C8.26653 2.75113 8.19063 3.53603 8.36667 4.28371C6.98078 4.21437 5.62497 3.85431 4.38728 3.22693C3.14959 2.59954 2.0577 1.71885 1.1825 0.642042C0.872742 1.17408 0.709963 1.7789 0.710833 2.39454C0.710833 3.60287 1.32667 4.67037 2.26083 5.29537C1.70751 5.27792 1.16637 5.1285 0.6825 4.85954V4.90204C0.682475 5.70694 0.960861 6.48706 1.47044 7.1101C1.98002 7.73314 2.68943 8.16074 3.47833 8.32038C2.9647 8.45972 2.42608 8.48024 1.90333 8.38037C2.12577 9.0732 2.55934 9.6791 3.14333 10.1132C3.72732 10.5473 4.43246 10.7879 5.16 10.8012C4.43696 11.3691 3.60907 11.7889 2.72367 12.0365C1.83828 12.2842 0.91274 12.3549 0 12.2445C1.5931 13.269 3.44759 13.8129 5.34167 13.8112C11.7533 13.8112 15.2583 8.50037 15.2583 3.89454C15.2583 3.74454 15.255 3.59288 15.2483 3.44371C15.9303 2.95067 16.519 2.33918 16.9867 1.63954Z" fill="#8C8787"/>
</svg>